<svg width="278" height="280" viewBox="0 0 278 280" fill="none" xmlns="http://www.w3.org/2000/svg">
<path d="M234.9 213.506H89.81L86.7377 200.946H251.161L277.791 84.9273L60.5618 58.8861L50.6092 0.797607H0.209229V22.7426H32.1026L67.3358 213.989C60.6621 215.086 54.4879 218.21 49.6525 222.939C44.8171 227.667 41.555 233.77 40.3097 240.418C39.0644 247.065 39.8963 253.935 42.6924 260.093C45.4884 266.251 50.1129 271.399 55.9372 274.837C61.7616 278.274 68.5032 279.835 75.2457 279.307C81.9882 278.779 88.4045 276.187 93.6223 271.884C98.8402 267.581 102.607 261.776 104.409 255.258C106.212 248.739 105.964 241.824 103.699 235.451H203.943C201.634 242.023 201.476 249.159 203.491 255.827C205.506 262.495 209.59 268.349 215.152 272.542C220.714 276.735 227.466 279.05 234.431 279.152C241.396 279.254 248.213 277.138 253.896 273.11C259.578 269.082 263.832 263.35 266.042 256.744C268.251 250.138 268.302 243.001 266.187 236.364C264.072 229.727 259.901 223.935 254.276 219.826C248.652 215.717 241.866 213.504 234.9 213.506ZM64.4272 81.4486L250.938 103.808L233.679 179.001H81.9174L64.4272 81.4486Z" fill="white"/>
</svg>
